<svg width="10" height="8" viewBox="0 0 10 8" fill="none" xmlns="http://www.w3.org/2000/svg">
<path d="M3.23428 7.43679C3.30977 7.53369 3.40928 7.61265 3.52457 7.66712C3.63986 7.72159 3.76761 7.75 3.89722 7.75C4.02684 7.75 4.15459 7.72159 4.26988 7.66712C4.38517 7.61265 4.48468 7.53369 4.56017 7.43679L9.96121 0.549548C10.0587 0.42454 9.96121 0.25 9.79451 0.25H8.59171C8.33012 0.25 8.08136 0.365573 7.92748 0.563699L3.89851 5.70554L2.07252 3.3752C1.91864 3.17944 1.67244 3.0615 1.40829 3.0615H0.205492C0.0387937 3.0615 -0.0586608 3.23604 0.0387937 3.36105L3.23428 7.43679Z" fill="black"/>
</svg>
