<svg width="288" height="27" viewBox="0 0 288 27" fill="none" xmlns="http://www.w3.org/2000/svg">
<path d="M25.5096 3.05412e-08H1.48909C0.666595 0.000494417 -0.000164764 0.667584 3.05412e-08 1.49041V25.5109C0.000494417 26.3334 0.667584 27.0002 1.49041 27H14.4229V16.5586H10.916V12.4717H14.4229V9.46401C14.4229 5.97612 16.5522 4.07769 19.6635 4.07769C21.1537 4.07769 22.4344 4.18876 22.8076 4.23836V7.88379H20.6622C18.9694 7.88379 18.6416 8.68815 18.6416 9.86874V12.4717H22.689L22.1616 16.5586H18.6416V27H25.5096C26.3326 27.0002 26.9998 26.3332 27 25.5103C27 25.5101 27 25.5099 27 25.5096V1.48909C26.9997 0.666595 26.3324 -0.000164764 25.5096 3.05412e-08Z" fill="white"/>
<path d="M110.045 0H90.9551C88.7744 0 87 1.77443 87 3.95508V23.0449C87 25.2256 88.7744 27 90.9551 27H110.045C112.226 27 114 25.2256 114 23.0449V3.95508C114 1.77443 112.226 0 110.045 0ZM100.553 20.5664C96.6271 20.5664 93.4336 17.3729 93.4336 13.4473C93.4336 9.52164 96.6271 6.32812 100.553 6.32812C104.478 6.32812 107.672 9.52164 107.672 13.4473C107.672 17.3729 104.478 20.5664 100.553 20.5664ZM108.463 7.91016C107.154 7.91016 106.09 6.84558 106.09 5.53711C106.09 4.22864 107.154 3.16406 108.463 3.16406C109.771 3.16406 110.836 4.22864 110.836 5.53711C110.836 6.84558 109.771 7.91016 108.463 7.91016Z" fill="white"/>
<path d="M108.463 4.74609C108.026 4.74609 107.672 5.10061 107.672 5.53711C107.672 5.97361 108.026 6.32812 108.463 6.32812C108.899 6.32812 109.254 5.97361 109.254 5.53711C109.254 5.10061 108.899 4.74609 108.463 4.74609Z" fill="white"/>
<path d="M100.553 7.91016C97.4999 7.91016 95.0156 10.3944 95.0156 13.4473C95.0156 16.5001 97.4999 18.9844 100.553 18.9844C103.606 18.9844 106.09 16.5001 106.09 13.4473C106.09 10.3944 103.606 7.91016 100.553 7.91016Z" fill="white"/>
<g clip-path="url(#clip0_819:257)">
<path d="M201 5.12831C199.996 5.56875 198.926 5.86069 197.811 6.00244C198.958 5.31731 199.834 4.24069 200.246 2.943C199.176 3.58087 197.995 4.03144 196.736 4.28288C195.72 3.20119 194.272 2.53125 192.692 2.53125C189.628 2.53125 187.161 5.01863 187.161 8.06794C187.161 8.50669 187.198 8.92856 187.289 9.33019C182.687 9.10575 178.615 6.90019 175.88 3.54038C175.402 4.36894 175.122 5.31731 175.122 6.33825C175.122 8.25525 176.109 9.95456 177.581 10.9384C176.692 10.9215 175.819 10.6633 175.08 10.2566C175.08 10.2735 175.08 10.2954 175.08 10.3174C175.08 13.0072 176.999 15.2415 179.515 15.7562C179.064 15.8794 178.573 15.9384 178.063 15.9384C177.709 15.9384 177.351 15.9182 177.016 15.8439C177.733 18.036 179.768 19.6476 182.188 19.6999C180.305 21.1731 177.913 22.0607 175.325 22.0607C174.871 22.0607 174.435 22.0404 174 21.9847C176.452 23.5659 179.358 24.4688 182.491 24.4688C192.677 24.4688 198.246 16.0312 198.246 8.71762C198.246 8.47294 198.238 8.23669 198.226 8.00213C199.324 7.2225 200.247 6.24881 201 5.12831Z" fill="white"/>
</g>
<g clip-path="url(#clip1_819:257)">
<path d="M288 5.12831C286.996 5.56875 285.926 5.86069 284.811 6.00244C285.958 5.31731 286.834 4.24069 287.246 2.943C286.176 3.58087 284.995 4.03144 283.736 4.28288C282.72 3.20119 281.272 2.53125 279.692 2.53125C276.628 2.53125 274.161 5.01863 274.161 8.06794C274.161 8.50669 274.198 8.92856 274.289 9.33019C269.687 9.10575 265.615 6.90019 262.88 3.54038C262.402 4.36894 262.122 5.31731 262.122 6.33825C262.122 8.25525 263.109 9.95456 264.581 10.9384C263.692 10.9215 262.819 10.6633 262.08 10.2566C262.08 10.2735 262.08 10.2954 262.08 10.3174C262.08 13.0072 263.999 15.2415 266.515 15.7562C266.064 15.8794 265.573 15.9384 265.063 15.9384C264.709 15.9384 264.351 15.9182 264.016 15.8439C264.733 18.036 266.768 19.6476 269.188 19.6999C267.305 21.1731 264.913 22.0607 262.325 22.0607C261.871 22.0607 261.435 22.0404 261 21.9847C263.452 23.5659 266.358 24.4688 269.491 24.4688C279.677 24.4688 285.246 16.0312 285.246 8.71762C285.246 8.47294 285.238 8.23669 285.226 8.00213C286.324 7.2225 287.247 6.24881 288 5.12831Z" fill="white"/>
</g>
<defs>
<clipPath id="clip0_819:257">
<rect width="27" height="27" fill="white" transform="translate(174)"/>
</clipPath>
<clipPath id="clip1_819:257">
<rect width="27" height="27" fill="white" transform="translate(261)"/>
</clipPath>
</defs>
</svg>
