<svg width="20" height="19" viewBox="0 0 20 19" fill="none" xmlns="http://www.w3.org/2000/svg">
<path d="M10.2865 14.0898L9.99461 13.8858L9.70638 14.0949L4.64008 17.7705C4.63035 17.7752 4.62145 17.7795 4.61278 17.7836C4.60815 17.7858 4.60389 17.7877 4.6 17.7895C4.5961 17.7877 4.59185 17.7858 4.58721 17.7836C4.58577 17.7829 4.58432 17.7822 4.58286 17.7815L6.52552 11.8042L6.63713 11.4607L6.34619 11.2468L1.25004 7.49961H7.6H7.96705L8.07703 7.14942L9.9761 1.10237C9.98164 1.10091 9.9895 1.09961 10 1.09961C10.0022 1.09961 10.004 1.09966 10.0055 1.09974C10.0112 1.10564 10.0226 1.11901 10.0377 1.14502L11.9741 7.153L12.0858 7.49961H12.45H18.731L13.7064 11.1449L13.4121 11.3584L13.5245 11.7042L15.4665 17.6796C15.4582 17.6829 15.4508 17.6856 15.4441 17.6878C15.4415 17.6887 15.4391 17.6894 15.4369 17.6901L15.4365 17.6898L10.2865 14.0898Z" fill="#F63E1C" stroke="#F63E1C"/>
</svg>
